<?xml version="1.0" encoding="UTF-8"?>
<svg xmlns="http://www.w3.org/2000/svg" viewBox="0 0 134.64 141.34">
  <g id="Capa_1" data-name="Capa 1"/>
  <g id="Capa_2" data-name="Capa 2">
    <g id="Capa_1-2" data-name="Capa 1">
      <g>
        <path d="M34.4,137.33c-2.35-.09-4.4-1.35-5.5-4.03-.55-1.35-.83-2.77-1.18-4.18-2.88-11.4-5.74-22.81-8.62-34.21-2.88-11.42-5.78-22.84-8.67-34.26-2.68-10.59-5.36-21.19-8.04-31.78-.72-2.85-1.38-5.72-2.17-8.55-1.01-3.61,1.49-7.95,6.33-8.08,1.36-.04,2.58,.45,3.66,1.27,.44,.33,.84,.71,1.22,1.11,5.47,5.74,10.95,11.47,16.42,17.21,7.81,8.18,15.61,16.37,23.42,24.56,1.14,1.19,2.28,2.38,3.44,3.55,1.74,1.75,2.88,3.8,3.23,6.27,.15,1.07,.13,2.11-.16,3.18-3.51,13.12-6.97,26.25-10.45,39.38-2.01,7.59-4.04,15.18-6.07,22.77-.4,1.5-1.02,2.9-2.12,4.04-1.16,1.2-2.57,1.8-4.73,1.76Z" fill="#ee8014"/>
        <path d="M46.4,134.79c-.07-.78,.11-1.53,.31-2.27,2.81-10.33,5.78-20.62,8.69-30.93,2.71-9.61,5.42-19.22,8.14-28.83,.35-1.23,.77-2.42,1.38-3.55,1.31-2.44,3.32-3.98,5.99-4.69,11.36-3.03,22.72-6.06,34.08-9.09,7.01-1.87,14.03-3.75,21.04-5.62,1.34-.36,2.69-.49,4.03-.12,2.37,.64,3.75,2.25,4.36,4.58,.56,2.16,.09,4.11-1.36,5.78-1.11,1.27-2.3,2.48-3.47,3.7-9.4,9.83-18.8,19.65-28.19,29.48-6.63,6.94-13.26,13.88-19.89,20.83-7.81,8.18-15.61,16.37-23.42,24.56-.62,.65-1.27,1.27-2.04,1.76-2.66,1.69-6.26,1.14-8.3-1.27-.87-1.03-1.21-2.27-1.34-3.58-.02-.24,0-.48,0-.72Z" fill="#cf7512"/>
        <path d="M19.25,0c1.24,.01,2.43,.3,3.61,.67,9.38,2.93,18.76,5.86,28.14,8.79,13.34,4.17,26.67,8.33,40.01,12.51,11.01,3.45,22.04,6.85,33.02,10.38,1.25,.4,2.41,.96,3.33,1.91,1.62,1.67,2.14,3.64,1.58,5.88-.64,2.55-2.32,4.08-4.81,4.73-3.56,.94-7.13,1.84-10.7,2.75-9.56,2.44-19.12,4.89-28.69,7.33-5.48,1.4-10.97,2.77-16.45,4.19-3.88,1-7.15-.03-9.9-2.86-2.4-2.47-4.76-4.99-7.14-7.48-3.61-3.78-7.22-7.57-10.82-11.35-8.25-8.64-16.5-17.29-24.74-25.93-1.07-1.12-1.96-2.37-2.37-3.9-.27-1-.29-2.01,.03-2.99,.68-2.06,1.86-3.68,4.02-4.37,.61-.2,1.24-.26,1.88-.26Z" fill="#f3971b"/>
      </g>
    </g>
  </g>
</svg>